<svg width="130" height="21" viewBox="0 0 130 21" fill="none" xmlns="http://www.w3.org/2000/svg">
<path d="M11.5039 13.4805L10.3906 16.5391H1.01562V16.1055C3.77344 13.5898 5.71484 11.5352 6.83984 9.94141C7.96484 8.34766 8.52734 6.89062 8.52734 5.57031C8.52734 4.5625 8.21875 3.73438 7.60156 3.08594C6.98438 2.4375 6.24609 2.11328 5.38672 2.11328C4.60547 2.11328 3.90234 2.34375 3.27734 2.80469C2.66016 3.25781 2.20312 3.92578 1.90625 4.80859H1.47266C1.66797 3.36328 2.16797 2.25391 2.97266 1.48047C3.78516 0.707031 4.79688 0.320312 6.00781 0.320312C7.29688 0.320312 8.37109 0.734375 9.23047 1.5625C10.0977 2.39062 10.5312 3.36719 10.5312 4.49219C10.5312 5.29688 10.3438 6.10156 9.96875 6.90625C9.39062 8.17188 8.45312 9.51172 7.15625 10.9258C5.21094 13.0508 3.99609 14.332 3.51172 14.7695H7.66016C8.50391 14.7695 9.09375 14.7383 9.42969 14.6758C9.77344 14.6133 10.082 14.4883 10.3555 14.3008C10.6289 14.1055 10.8672 13.832 11.0703 13.4805H11.5039Z" fill="#00F0FF"/>
<path d="M13.3672 8.6875C13.3672 6.875 13.6406 5.31641 14.1875 4.01172C14.7344 2.69922 15.4609 1.72266 16.3672 1.08203C17.0703 0.574219 17.7969 0.320312 18.5469 0.320312C19.7656 0.320312 20.8594 0.941406 21.8281 2.18359C23.0391 3.72266 23.6445 5.80859 23.6445 8.44141C23.6445 10.2852 23.3789 11.8516 22.8477 13.1406C22.3164 14.4297 21.6367 15.3672 20.8086 15.9531C19.9883 16.5312 19.1953 16.8203 18.4297 16.8203C16.9141 16.8203 15.6523 15.9258 14.6445 14.1367C13.793 12.6289 13.3672 10.8125 13.3672 8.6875ZM15.6641 8.98047C15.6641 11.168 15.9336 12.9531 16.4727 14.3359C16.918 15.5 17.582 16.082 18.4648 16.082C18.8867 16.082 19.3242 15.8945 19.7773 15.5195C20.2305 15.1367 20.5742 14.5 20.8086 13.6094C21.168 12.2656 21.3477 10.3711 21.3477 7.92578C21.3477 6.11328 21.1602 4.60156 20.7852 3.39062C20.5039 2.49219 20.1406 1.85547 19.6953 1.48047C19.375 1.22266 18.9883 1.09375 18.5352 1.09375C18.0039 1.09375 17.5312 1.33203 17.1172 1.80859C16.5547 2.45703 16.1719 3.47656 15.9688 4.86719C15.7656 6.25781 15.6641 7.62891 15.6641 8.98047Z" fill="#00F0FF"/>
<path d="M40.3672 12.4609C40.0781 13.875 39.5117 14.9648 38.668 15.7305C37.8242 16.4883 36.8906 16.8672 35.8672 16.8672C34.6484 16.8672 33.5859 16.3555 32.6797 15.332C31.7734 14.3086 31.3203 12.9258 31.3203 11.1836C31.3203 9.49609 31.8203 8.125 32.8203 7.07031C33.8281 6.01562 35.0352 5.48828 36.4414 5.48828C37.4961 5.48828 38.3633 5.76953 39.043 6.33203C39.7227 6.88672 40.0625 7.46484 40.0625 8.06641C40.0625 8.36328 39.9648 8.60547 39.7695 8.79297C39.582 8.97266 39.3164 9.0625 38.9727 9.0625C38.5117 9.0625 38.1641 8.91406 37.9297 8.61719C37.7969 8.45312 37.707 8.14062 37.6602 7.67969C37.6211 7.21875 37.4648 6.86719 37.1914 6.625C36.918 6.39062 36.5391 6.27344 36.0547 6.27344C35.2734 6.27344 34.6445 6.5625 34.168 7.14062C33.5352 7.90625 33.2188 8.91797 33.2188 10.1758C33.2188 11.457 33.5312 12.5898 34.1562 13.5742C34.7891 14.5508 35.6406 15.0391 36.7109 15.0391C37.4766 15.0391 38.1641 14.7773 38.7734 14.2539C39.2031 13.8945 39.6211 13.2422 40.0273 12.2969L40.3672 12.4609Z" fill="#00F0FF"/>
<path d="M47.1641 5.48828C48.7891 5.48828 50.0938 6.10547 51.0781 7.33984C51.9141 8.39453 52.332 9.60547 52.332 10.9727C52.332 11.9336 52.1016 12.9062 51.6406 13.8906C51.1797 14.875 50.543 15.6172 49.7305 16.1172C48.9258 16.6172 48.0273 16.8672 47.0352 16.8672C45.418 16.8672 44.1328 16.2227 43.1797 14.9336C42.375 13.8477 41.9727 12.6289 41.9727 11.2773C41.9727 10.293 42.2148 9.31641 42.6992 8.34766C43.1914 7.37109 43.8359 6.65234 44.6328 6.19141C45.4297 5.72266 46.2734 5.48828 47.1641 5.48828ZM46.8008 6.25C46.3867 6.25 45.9688 6.375 45.5469 6.625C45.1328 6.86719 44.7969 7.29688 44.5391 7.91406C44.2812 8.53125 44.1523 9.32422 44.1523 10.293C44.1523 11.8555 44.4609 13.2031 45.0781 14.3359C45.7031 15.4688 46.5234 16.0352 47.5391 16.0352C48.2969 16.0352 48.9219 15.7227 49.4141 15.0977C49.9062 14.4727 50.1523 13.3984 50.1523 11.875C50.1523 9.96875 49.7422 8.46875 48.9219 7.375C48.3672 6.625 47.6602 6.25 46.8008 6.25Z" fill="#00F0FF"/>
<path d="M57.1016 7.77344C57.8828 6.99219 58.3438 6.54297 58.4844 6.42578C58.8359 6.12891 59.2148 5.89844 59.6211 5.73438C60.0273 5.57031 60.4297 5.48828 60.8281 5.48828C61.5 5.48828 62.0781 5.68359 62.5625 6.07422C63.0469 6.46484 63.3711 7.03125 63.5352 7.77344C64.3398 6.83594 65.0195 6.22266 65.5742 5.93359C66.1289 5.63672 66.6992 5.48828 67.2852 5.48828C67.8555 5.48828 68.3594 5.63672 68.7969 5.93359C69.2422 6.22266 69.5938 6.69922 69.8516 7.36328C70.0234 7.81641 70.1094 8.52734 70.1094 9.49609V14.1133C70.1094 14.7852 70.1602 15.2461 70.2617 15.4961C70.3398 15.668 70.4844 15.8164 70.6953 15.9414C70.9062 16.0586 71.25 16.1172 71.7266 16.1172V16.5391H66.4297V16.1172H66.6523C67.1133 16.1172 67.4727 16.0273 67.7305 15.8477C67.9102 15.7227 68.0391 15.5234 68.1172 15.25C68.1484 15.1172 68.1641 14.7383 68.1641 14.1133V9.49609C68.1641 8.62109 68.0586 8.00391 67.8477 7.64453C67.543 7.14453 67.0547 6.89453 66.3828 6.89453C65.9688 6.89453 65.5508 7 65.1289 7.21094C64.7148 7.41406 64.2109 7.79688 63.6172 8.35938L63.5938 8.48828L63.6172 8.99219V14.1133C63.6172 14.8477 63.6562 15.3047 63.7344 15.4844C63.8203 15.6641 63.9766 15.8164 64.2031 15.9414C64.4297 16.0586 64.8164 16.1172 65.3633 16.1172V16.5391H59.9375V16.1172C60.5312 16.1172 60.9375 16.0469 61.1562 15.9062C61.3828 15.7656 61.5391 15.5547 61.625 15.2734C61.6641 15.1406 61.6836 14.7539 61.6836 14.1133V9.49609C61.6836 8.62109 61.5547 7.99219 61.2969 7.60938C60.9531 7.10938 60.4727 6.85938 59.8555 6.85938C59.4336 6.85938 59.0156 6.97266 58.6016 7.19922C57.9531 7.54297 57.4531 7.92969 57.1016 8.35938V14.1133C57.1016 14.8164 57.1484 15.2734 57.2422 15.4844C57.3438 15.6953 57.4883 15.8555 57.6758 15.9648C57.8711 16.0664 58.2617 16.1172 58.8477 16.1172V16.5391H53.5391V16.1172C54.0312 16.1172 54.375 16.0664 54.5703 15.9648C54.7656 15.8555 54.9141 15.6875 55.0156 15.4609C55.1172 15.2266 55.168 14.7773 55.168 14.1133V10.0117C55.168 8.83203 55.1328 8.07031 55.0625 7.72656C55.0078 7.46875 54.9219 7.29297 54.8047 7.19922C54.6875 7.09766 54.5273 7.04688 54.3242 7.04688C54.1055 7.04688 53.8438 7.10547 53.5391 7.22266L53.3633 6.80078L56.5977 5.48828H57.1016V7.77344Z" fill="#00F0FF"/>
<path d="M75.7812 7.77344C76.5625 6.99219 77.0234 6.54297 77.1641 6.42578C77.5156 6.12891 77.8945 5.89844 78.3008 5.73438C78.707 5.57031 79.1094 5.48828 79.5078 5.48828C80.1797 5.48828 80.7578 5.68359 81.2422 6.07422C81.7266 6.46484 82.0508 7.03125 82.2148 7.77344C83.0195 6.83594 83.6992 6.22266 84.2539 5.93359C84.8086 5.63672 85.3789 5.48828 85.9648 5.48828C86.5352 5.48828 87.0391 5.63672 87.4766 5.93359C87.9219 6.22266 88.2734 6.69922 88.5312 7.36328C88.7031 7.81641 88.7891 8.52734 88.7891 9.49609V14.1133C88.7891 14.7852 88.8398 15.2461 88.9414 15.4961C89.0195 15.668 89.1641 15.8164 89.375 15.9414C89.5859 16.0586 89.9297 16.1172 90.4062 16.1172V16.5391H85.1094V16.1172H85.332C85.793 16.1172 86.1523 16.0273 86.4102 15.8477C86.5898 15.7227 86.7188 15.5234 86.7969 15.25C86.8281 15.1172 86.8438 14.7383 86.8438 14.1133V9.49609C86.8438 8.62109 86.7383 8.00391 86.5273 7.64453C86.2227 7.14453 85.7344 6.89453 85.0625 6.89453C84.6484 6.89453 84.2305 7 83.8086 7.21094C83.3945 7.41406 82.8906 7.79688 82.2969 8.35938L82.2734 8.48828L82.2969 8.99219V14.1133C82.2969 14.8477 82.3359 15.3047 82.4141 15.4844C82.5 15.6641 82.6562 15.8164 82.8828 15.9414C83.1094 16.0586 83.4961 16.1172 84.043 16.1172V16.5391H78.6172V16.1172C79.2109 16.1172 79.6172 16.0469 79.8359 15.9062C80.0625 15.7656 80.2188 15.5547 80.3047 15.2734C80.3438 15.1406 80.3633 14.7539 80.3633 14.1133V9.49609C80.3633 8.62109 80.2344 7.99219 79.9766 7.60938C79.6328 7.10938 79.1523 6.85938 78.5352 6.85938C78.1133 6.85938 77.6953 6.97266 77.2812 7.19922C76.6328 7.54297 76.1328 7.92969 75.7812 8.35938V14.1133C75.7812 14.8164 75.8281 15.2734 75.9219 15.4844C76.0234 15.6953 76.168 15.8555 76.3555 15.9648C76.5508 16.0664 76.9414 16.1172 77.5273 16.1172V16.5391H72.2188V16.1172C72.7109 16.1172 73.0547 16.0664 73.25 15.9648C73.4453 15.8555 73.5938 15.6875 73.6953 15.4609C73.7969 15.2266 73.8477 14.7773 73.8477 14.1133V10.0117C73.8477 8.83203 73.8125 8.07031 73.7422 7.72656C73.6875 7.46875 73.6016 7.29297 73.4844 7.19922C73.3672 7.09766 73.207 7.04688 73.0039 7.04688C72.7852 7.04688 72.5234 7.10547 72.2188 7.22266L72.043 6.80078L75.2773 5.48828H75.7812V7.77344Z" fill="#00F0FF"/>
<path d="M93.0781 9.84766C93.0703 11.4414 93.457 12.6914 94.2383 13.5977C95.0195 14.5039 95.9375 14.957 96.9922 14.957C97.6953 14.957 98.3047 14.7656 98.8203 14.3828C99.3438 13.9922 99.7812 13.3281 100.133 12.3906L100.496 12.625C100.332 13.6953 99.8555 14.6719 99.0664 15.5547C98.2773 16.4297 97.2891 16.8672 96.1016 16.8672C94.8125 16.8672 93.707 16.3672 92.7852 15.3672C91.8711 14.3594 91.4141 13.0078 91.4141 11.3125C91.4141 9.47656 91.8828 8.04688 92.8203 7.02344C93.7656 5.99219 94.9492 5.47656 96.3711 5.47656C97.5742 5.47656 98.5625 5.875 99.3359 6.67188C100.109 7.46094 100.496 8.51953 100.496 9.84766H93.0781ZM93.0781 9.16797H98.0469C98.0078 8.48047 97.9258 7.99609 97.8008 7.71484C97.6055 7.27734 97.3125 6.93359 96.9219 6.68359C96.5391 6.43359 96.1367 6.30859 95.7148 6.30859C95.0664 6.30859 94.4844 6.5625 93.9688 7.07031C93.4609 7.57031 93.1641 8.26953 93.0781 9.16797Z" fill="#00F0FF"/>
<path d="M105.066 7.76172C106.324 6.24609 107.523 5.48828 108.664 5.48828C109.25 5.48828 109.754 5.63672 110.176 5.93359C110.598 6.22266 110.934 6.70312 111.184 7.375C111.355 7.84375 111.441 8.5625 111.441 9.53125V14.1133C111.441 14.793 111.496 15.2539 111.605 15.4961C111.691 15.6914 111.828 15.8438 112.016 15.9531C112.211 16.0625 112.566 16.1172 113.082 16.1172V16.5391H107.773V16.1172H107.996C108.496 16.1172 108.844 16.043 109.039 15.8945C109.242 15.7383 109.383 15.5117 109.461 15.2148C109.492 15.0977 109.508 14.7305 109.508 14.1133V9.71875C109.508 8.74219 109.379 8.03516 109.121 7.59766C108.871 7.15234 108.445 6.92969 107.844 6.92969C106.914 6.92969 105.988 7.4375 105.066 8.45312V14.1133C105.066 14.8398 105.109 15.2891 105.195 15.4609C105.305 15.6875 105.453 15.8555 105.641 15.9648C105.836 16.0664 106.227 16.1172 106.812 16.1172V16.5391H101.504V16.1172H101.738C102.285 16.1172 102.652 15.9805 102.84 15.707C103.035 15.4258 103.133 14.8945 103.133 14.1133V10.1289C103.133 8.83984 103.102 8.05469 103.039 7.77344C102.984 7.49219 102.895 7.30078 102.77 7.19922C102.652 7.09766 102.492 7.04688 102.289 7.04688C102.07 7.04688 101.809 7.10547 101.504 7.22266L101.328 6.80078L104.562 5.48828H105.066V7.76172Z" fill="#00F0FF"/>
<path d="M117.055 2.27734V5.80469H119.562V6.625H117.055V13.5859C117.055 14.2812 117.152 14.75 117.348 14.9922C117.551 15.2344 117.809 15.3555 118.121 15.3555C118.379 15.3555 118.629 15.2773 118.871 15.1211C119.113 14.957 119.301 14.7188 119.434 14.4062H119.891C119.617 15.1719 119.23 15.75 118.73 16.1406C118.23 16.5234 117.715 16.7148 117.184 16.7148C116.824 16.7148 116.473 16.6172 116.129 16.4219C115.785 16.2188 115.531 15.9336 115.367 15.5664C115.203 15.1914 115.121 14.6172 115.121 13.8438V6.625H113.422V6.23828C113.852 6.06641 114.289 5.77734 114.734 5.37109C115.188 4.95703 115.59 4.46875 115.941 3.90625C116.121 3.60938 116.371 3.06641 116.691 2.27734H117.055Z" fill="#00F0FF"/>
<path d="M127.555 5.48828V9.14453H127.168C126.871 7.99609 126.488 7.21484 126.02 6.80078C125.559 6.38672 124.969 6.17969 124.25 6.17969C123.703 6.17969 123.262 6.32422 122.926 6.61328C122.59 6.90234 122.422 7.22266 122.422 7.57422C122.422 8.01172 122.547 8.38672 122.797 8.69922C123.039 9.01953 123.531 9.35938 124.273 9.71875L125.984 10.5508C127.57 11.3242 128.363 12.3438 128.363 13.6094C128.363 14.5859 127.992 15.375 127.25 15.9766C126.516 16.5703 125.691 16.8672 124.777 16.8672C124.121 16.8672 123.371 16.75 122.527 16.5156C122.27 16.4375 122.059 16.3984 121.895 16.3984C121.715 16.3984 121.574 16.5 121.473 16.7031H121.086V12.8711H121.473C121.691 13.9648 122.109 14.7891 122.727 15.3438C123.344 15.8984 124.035 16.1758 124.801 16.1758C125.34 16.1758 125.777 16.0195 126.113 15.707C126.457 15.3867 126.629 15.0039 126.629 14.5586C126.629 14.0195 126.438 13.5664 126.055 13.1992C125.68 12.832 124.926 12.3672 123.793 11.8047C122.66 11.2422 121.918 10.7344 121.566 10.2812C121.215 9.83594 121.039 9.27344 121.039 8.59375C121.039 7.71094 121.34 6.97266 121.941 6.37891C122.551 5.78516 123.336 5.48828 124.297 5.48828C124.719 5.48828 125.23 5.57812 125.832 5.75781C126.23 5.875 126.496 5.93359 126.629 5.93359C126.754 5.93359 126.852 5.90625 126.922 5.85156C126.992 5.79688 127.074 5.67578 127.168 5.48828H127.555Z" fill="#00F0FF"/>
<path d="M0.5 19.7383H129.207V20.9102H0.5V19.7383Z" fill="#00F0FF"/>
</svg>
